<svg width="208" height="41" viewBox="0 0 208 41" fill="none" xmlns="http://www.w3.org/2000/svg">
<path d="M31.1047 17.9446C30.5254 18.5292 30.0818 19.2349 29.8054 20.011C29.5291 20.7874 29.4268 21.6152 29.5058 22.4357L29.4783 22.4081C29.5596 23.3739 29.4297 24.3458 29.0979 25.2561C28.766 26.1663 28.2402 26.9929 27.5571 27.6783C26.8738 28.3636 26.0497 28.8912 25.1422 29.2239C24.2349 29.5568 23.2659 29.6871 22.3032 29.6056L22.3307 29.6332C21.1791 29.5257 20.0224 29.777 19.0183 30.3531C18.0143 30.9291 17.2118 31.8018 16.7204 32.8521C16.229 33.9024 16.0723 35.0791 16.2719 36.2221C16.4717 37.3648 17.0179 38.4181 17.8361 39.2381C18.6544 40.0582 19.7048 40.6051 20.8442 40.8043C21.9837 41.0036 23.1566 40.8454 24.2032 40.3515C25.2498 39.8574 26.119 39.0518 26.6924 38.0441C27.2657 37.0364 27.5153 35.876 27.4071 34.7208L27.4362 34.7484C27.3548 33.7827 27.4846 32.8107 27.8165 31.9004C28.1483 30.9902 28.6743 30.1636 29.3574 29.4782C30.0407 28.7929 30.8647 28.2653 31.7721 27.9325C32.6796 27.5997 33.6484 27.4693 34.6113 27.5509L34.5822 27.5233C35.5229 27.6081 36.4699 27.4534 37.3352 27.0734C38.2004 26.6935 38.9561 26.1005 39.532 25.3496C40.108 24.5988 40.4859 23.714 40.6302 22.7778C40.7746 21.8414 40.6811 20.8837 40.3582 19.9931C40.0354 19.1027 39.4937 18.3084 38.7834 17.6839C38.073 17.0594 37.217 16.6248 36.2947 16.4206C35.3723 16.2164 34.4135 16.2489 33.507 16.5152C32.6006 16.7817 31.7759 17.2733 31.1093 17.9446H31.1047Z" fill="#394149"/>
<path d="M19.8284 26.0175L19.7994 25.99C20.6176 26.0726 21.444 25.9719 22.2188 25.6949C22.9935 25.418 23.6972 24.972 24.279 24.3888C24.8606 23.8057 25.3061 23.1001 25.5826 22.3231C25.8593 21.5462 25.9603 20.7174 25.8785 19.8965L25.9076 19.9241C25.8262 18.9582 25.9562 17.9864 26.2879 17.0761C26.6197 16.1659 27.1457 15.3393 27.8288 14.6539C28.5121 13.9686 29.3361 13.441 30.2435 13.1083C31.151 12.7753 32.1198 12.6451 33.0827 12.7266L33.0536 12.699C34.2054 12.8076 35.3624 12.557 36.367 11.9816C37.3717 11.4062 38.1748 10.5339 38.667 9.48377C39.1592 8.43365 39.3165 7.25677 39.1175 6.11366C38.9185 4.97054 38.3728 3.91686 37.5547 3.09632C36.7367 2.27578 35.6863 1.72832 34.5467 1.52865C33.4072 1.32896 32.234 1.48676 31.1871 1.98052C30.1402 2.47427 29.2707 3.27996 28.6971 4.28769C28.1234 5.29539 27.8736 6.45608 27.9818 7.61142L27.9543 7.58228C28.0358 8.54811 27.9062 9.52015 27.5745 10.4305C27.2428 11.3409 26.7168 12.1677 26.0337 12.8531C25.3504 13.5384 24.5262 14.066 23.6187 14.3987C22.711 14.7315 21.7421 14.8615 20.7792 14.7797L20.8067 14.8089C19.9885 14.7262 19.162 14.827 18.3873 15.1039C17.6126 15.3807 16.9089 15.8269 16.3271 16.41C15.7453 16.9931 15.3 17.6988 15.0234 18.4757C14.7469 19.2526 14.6458 20.0814 14.7276 20.9023L14.7001 20.8747C14.7811 21.8404 14.651 22.8123 14.3192 23.7225C13.9872 24.6325 13.4613 25.4591 12.7782 26.1444C12.095 26.8296 11.2711 27.3571 10.3638 27.6901C9.45647 28.023 8.48767 28.1535 7.52496 28.0722L7.55248 28.0998C6.40073 27.9913 5.24365 28.2418 4.23906 28.8173C3.23448 29.3927 2.43129 30.2649 1.93908 31.3151C1.44685 32.3652 1.28953 33.5421 1.48859 34.6852C1.68766 35.8283 2.23342 36.882 3.0514 37.7025C3.8694 38.5231 4.91981 39.0705 6.05937 39.2701C7.19894 39.4698 8.37216 39.312 9.41903 38.8183C10.4659 38.3245 11.3354 37.5189 11.9091 36.5112C12.4827 35.5034 12.7325 34.3428 12.6243 33.1874L12.6533 33.215C12.572 32.2492 12.7019 31.2773 13.0338 30.367C13.3655 29.4568 13.8915 28.6302 14.5746 27.9448C15.2579 27.2596 16.0819 26.7319 16.9893 26.3992C17.8968 26.0663 18.8656 25.936 19.8284 26.0175Z" fill="#394149"/>
<path d="M9.58399 22.9402C10.1633 22.3556 10.6069 21.65 10.883 20.8737C11.1592 20.0974 11.261 19.2694 11.1813 18.449L11.2104 18.4766C11.1291 17.5106 11.2589 16.5383 11.5909 15.6278C11.923 14.7173 12.4491 13.8906 13.1327 13.2052C13.8163 12.5198 14.6407 11.9924 15.5485 11.6597C16.4563 11.327 17.4256 11.1972 18.3886 11.2792L18.3595 11.2516C19.5108 11.3598 20.6675 11.1091 21.6716 10.5337C22.6757 9.95836 23.4784 9.0863 23.9704 8.03651C24.4623 6.9867 24.6195 5.81025 24.4205 4.66756C24.2214 3.52487 23.6757 2.4716 22.8581 1.65135C22.0405 0.831113 20.9903 0.283836 19.8513 0.0841654C18.7122 -0.115521 17.5393 0.0421367 16.4928 0.535594C15.4462 1.02905 14.5769 1.83431 14.0034 2.84156C13.4297 3.84881 13.1798 5.00902 13.2877 6.16396L13.2602 6.13635C13.3415 7.10213 13.2116 8.07406 12.8797 8.98431C12.5479 9.89456 12.0221 10.7212 11.3389 11.4065C10.6557 12.0919 9.8316 12.6194 8.92418 12.9522C8.01676 13.2851 7.04786 13.4154 6.08509 13.3338L6.1126 13.3614C5.17187 13.2768 4.22506 13.4318 3.35992 13.8119C2.49478 14.192 1.73928 14.7851 1.16346 15.5361C0.587627 16.287 0.2101 17.1718 0.0658339 18.108C-0.0784174 19.0444 0.0152688 20.0021 0.33821 20.8924C0.661151 21.7828 1.20292 22.5769 1.9133 23.2013C2.62367 23.8258 3.47967 24.2602 4.40198 24.4644C5.32427 24.6685 6.28304 24.6359 7.18944 24.3695C8.09582 24.103 8.92048 23.6114 9.58703 22.9402H9.58399Z" fill="#394149"/>
<path d="M56.9346 7.6467H61.4744V29.808H56.9346V7.6467Z" fill="#394149"/>
<path d="M64.0454 22.2195C64.0392 20.627 64.5042 19.0682 65.3816 17.7409C66.259 16.4137 67.5093 15.3775 68.9743 14.7637C70.4393 14.1497 72.0529 13.9858 73.6108 14.2926C75.1687 14.5994 76.6008 15.363 77.7257 16.487C78.8506 17.6108 79.6176 19.0443 79.9297 20.6058C80.2419 22.1674 80.0849 23.7867 79.4788 25.2587C78.8727 26.7306 77.8448 27.9891 76.5252 28.8745C75.2054 29.76 73.6536 30.2327 72.0659 30.2327C71.0121 30.2448 69.9664 30.0459 68.9899 29.6479C68.0135 29.2498 67.126 28.6606 66.3793 27.9146C65.6324 27.1685 65.0415 26.2805 64.6408 25.3027C64.24 24.3249 64.0376 23.2767 64.0454 22.2195ZM75.5464 22.2195C75.5275 21.533 75.3072 20.8674 74.9133 20.3057C74.5192 19.7442 73.9689 19.3115 73.3312 19.0621C72.6933 18.8124 71.9965 18.7569 71.3274 18.9026C70.6583 19.0483 70.0469 19.3883 69.5695 19.8807C69.0923 20.3729 68.7701 20.9954 68.6437 21.6704C68.5171 22.3452 68.5916 23.0426 68.858 23.6752C69.1244 24.3079 69.5708 24.8476 70.1412 25.2271C70.7118 25.6066 71.3814 25.809 72.0659 25.809C72.5347 25.8216 73.001 25.7365 73.4356 25.5592C73.87 25.382 74.2632 25.1164 74.5901 24.7792C74.9171 24.4419 75.171 24.0403 75.3355 23.5998C75.5001 23.1593 75.5719 22.6893 75.5464 22.2195Z" fill="#394149"/>
<path d="M98.18 14.6295V29.0428C98.18 34.1427 94.2149 36.2985 90.1902 36.2985C88.7732 36.405 87.3542 36.1178 86.089 35.4687C84.8239 34.8195 83.7614 33.8334 83.0181 32.6185L86.8915 30.3722C87.2039 31.0055 87.7018 31.5279 88.3183 31.8697C88.9349 32.2113 89.6408 32.356 90.3415 32.2843C90.7894 32.3465 91.2455 32.307 91.6761 32.1685C92.1065 32.0301 92.5006 31.7962 92.8289 31.4845C93.1573 31.1726 93.4115 30.7908 93.5729 30.367C93.7341 29.9433 93.7983 29.4887 93.7609 29.0367V27.649C93.2293 28.3014 92.5527 28.8199 91.7852 29.1626C91.0177 29.5053 90.181 29.6627 89.3418 29.6224C87.3452 29.5592 85.4514 28.7193 84.0613 27.2801C82.6713 25.8411 81.894 23.9158 81.894 21.912C81.894 19.9083 82.6713 17.983 84.0613 16.544C85.4514 15.1048 87.3452 14.2648 89.3418 14.2017C90.181 14.1613 91.0177 14.3188 91.7852 14.6615C92.5527 15.0042 93.2293 15.5226 93.7609 16.1751V14.6264L98.18 14.6295ZM93.7624 21.9143C93.793 21.1805 93.6038 20.4542 93.2193 19.829C92.8349 19.2037 92.2727 18.7083 91.6052 18.4064C90.9376 18.1043 90.1954 18.0097 89.4737 18.1345C88.7521 18.2593 88.0842 18.5979 87.556 19.1068C87.0278 19.6156 86.6636 20.2712 86.51 20.9894C86.3565 21.7076 86.4207 22.4556 86.6946 23.1369C86.9684 23.8181 87.4392 24.4017 88.0463 24.8123C88.6535 25.223 89.3693 25.4419 90.1015 25.441C90.5786 25.4744 91.0572 25.4073 91.5067 25.2438C91.9563 25.0804 92.3667 24.8242 92.7115 24.492C93.0564 24.1598 93.3282 23.7588 93.5091 23.3147C93.6901 22.8708 93.7765 22.3938 93.7624 21.9143Z" fill="#394149"/>
<path d="M100.751 22.2195C100.745 20.627 101.21 19.0682 102.087 17.7409C102.965 16.4137 104.215 15.3775 105.68 14.7637C107.145 14.1497 108.758 13.9858 110.316 14.2926C111.874 14.5994 113.306 15.363 114.431 16.487C115.556 17.6108 116.323 19.0443 116.635 20.6058C116.947 22.1674 116.791 23.7867 116.184 25.2587C115.578 26.7306 114.55 27.9891 113.231 28.8745C111.911 29.76 110.359 30.2327 108.771 30.2327C107.718 30.2448 106.672 30.0459 105.696 29.6479C104.719 29.2498 103.832 28.6606 103.085 27.9146C102.338 27.1685 101.747 26.2805 101.346 25.3027C100.946 24.3249 100.743 23.2767 100.751 22.2195ZM112.252 22.2195C112.233 21.533 112.013 20.8674 111.619 20.3057C111.225 19.7442 110.675 19.3115 110.037 19.0621C109.399 18.8124 108.702 18.7569 108.033 18.9026C107.364 19.0483 106.753 19.3883 106.275 19.8807C105.798 20.3729 105.476 20.9954 105.349 21.6704C105.223 22.3452 105.297 23.0426 105.564 23.6752C105.83 24.3079 106.276 24.8476 106.847 25.2271C107.417 25.6066 108.087 25.809 108.771 25.809C109.24 25.8216 109.707 25.7365 110.141 25.5592C110.576 25.382 110.969 25.1164 111.296 24.7792C111.623 24.4419 111.877 24.0403 112.041 23.5998C112.206 23.1593 112.278 22.6893 112.252 22.2195Z" fill="#394149"/>
<path d="M118.909 10.5615C118.909 10.0211 119.069 9.49283 119.368 9.0435C119.667 8.59416 120.093 8.24393 120.591 8.03713C121.088 7.83032 121.636 7.7762 122.164 7.88164C122.693 7.98707 123.178 8.24731 123.559 8.62944C123.94 9.01157 124.199 9.49843 124.305 10.0285C124.41 10.5585 124.356 11.1079 124.15 11.6072C123.943 12.1065 123.594 12.5332 123.146 12.8335C122.698 13.1337 122.172 13.2939 121.633 13.2939C120.913 13.2867 120.224 12.9966 119.715 12.4857C119.205 11.9748 118.916 11.284 118.909 10.5615ZM119.368 14.6295H123.909V29.8095H119.361L119.368 14.6295Z" fill="#394149"/>
<path d="M143.511 22.2195C143.564 23.2227 143.418 24.2265 143.082 25.173C142.747 26.1195 142.228 26.9901 141.556 27.7349C140.884 28.4795 140.071 29.0836 139.166 29.5123C138.26 29.9409 137.279 30.1858 136.278 30.2327C135.437 30.2787 134.596 30.1364 133.816 29.8161C133.036 29.4956 132.338 29.0052 131.77 28.3804V35.8799H127.23V14.6295H131.77V16.0555C132.338 15.4311 133.037 14.941 133.816 14.621C134.596 14.3009 135.437 14.1587 136.278 14.2047C137.279 14.2515 138.26 14.4962 139.166 14.9249C140.072 15.3537 140.885 15.9578 141.557 16.7027C142.229 17.4476 142.748 18.3185 143.083 19.2654C143.419 20.212 143.564 21.2161 143.511 22.2195ZM138.971 22.2195C138.954 21.5091 138.727 20.8197 138.321 20.2375C137.915 19.6554 137.346 19.2065 136.687 18.947C136.027 18.6874 135.306 18.6287 134.613 18.7784C133.921 18.9279 133.288 19.279 132.793 19.7878C132.298 20.2967 131.964 20.9404 131.833 21.6388C131.701 22.3371 131.778 23.0587 132.053 23.7136C132.328 24.3684 132.79 24.9272 133.38 25.3202C133.971 25.713 134.663 25.9226 135.372 25.9225C135.858 25.9442 136.344 25.8625 136.796 25.6828C137.249 25.5033 137.659 25.2296 137.998 24.88C138.338 24.5302 138.601 24.1125 138.768 23.6541C138.936 23.1956 139.005 22.7066 138.971 22.2195Z" fill="#394149"/>
<path d="M157.521 25.254C157.521 28.7454 154.496 30.2327 151.228 30.2327C149.907 30.3526 148.581 30.0726 147.421 29.4285C146.261 28.7845 145.32 27.8062 144.72 26.6202L148.653 24.3738C148.813 24.922 149.154 25.399 149.622 25.7249C150.089 26.0508 150.654 26.2062 151.221 26.1648C152.31 26.1648 152.855 25.8305 152.855 25.2248C152.855 23.5535 145.41 24.4352 145.41 19.1835C145.41 15.873 148.195 14.2048 151.342 14.2048C152.525 14.1672 153.696 14.4487 154.734 15.0199C155.772 15.5912 156.639 16.4312 157.242 17.4524L153.369 19.5469C153.199 19.1493 152.917 18.8106 152.556 18.5731C152.195 18.3356 151.773 18.2098 151.342 18.2114C150.555 18.2114 150.07 18.518 150.07 19.0608C150.077 20.792 157.521 19.6374 157.521 25.254Z" fill="#394149"/>
<path d="M174.104 14.6295V29.8095H169.564V28.382C169.04 29.0118 168.375 29.5082 167.623 29.8302C166.871 30.1522 166.055 30.2906 165.238 30.2342C162.181 30.2342 159.583 28.0492 159.583 23.9476V14.6295H164.123V23.2806C164.084 23.6421 164.126 24.0077 164.243 24.3516C164.359 24.6957 164.551 25.01 164.801 25.2727C165.052 25.5353 165.356 25.74 165.694 25.8727C166.03 26.0053 166.392 26.0626 166.755 26.0406C168.419 26.0406 169.569 25.07 169.569 22.9141V14.6341L174.104 14.6295Z" fill="#394149"/>
<path d="M200.136 20.4884V29.808H195.596V20.8824C195.596 19.3644 194.87 18.3938 193.418 18.3938C191.904 18.3938 191.056 19.4564 191.056 21.2474V29.808H186.518V20.8824C186.518 19.3644 185.792 18.3938 184.338 18.3938C182.825 18.3938 181.978 19.4564 181.978 21.2474V29.808H177.438V14.628H181.978V16.0233C182.449 15.4043 183.066 14.9133 183.774 14.5955C184.483 14.2774 185.26 14.1427 186.033 14.2032C186.81 14.165 187.583 14.3296 188.279 14.6806C188.973 15.0314 189.564 15.557 189.997 16.2058C190.5 15.527 191.166 14.9872 191.933 14.637C192.701 14.2868 193.544 14.1376 194.385 14.2032C197.86 14.2048 200.136 16.6934 200.136 20.4884Z" fill="#394149"/>
<path d="M203.975 14.5359C205.836 14.5359 207.344 13.0228 207.344 11.1565C207.344 9.29004 205.836 7.77701 203.975 7.77701C202.115 7.77701 200.607 9.29004 200.607 11.1565C200.607 13.0228 202.115 14.5359 203.975 14.5359Z" fill="#394149"/>
</svg>
