<svg width="182" height="42" viewBox="0 0 182 42" fill="none" xmlns="http://www.w3.org/2000/svg">
<path d="M52.708 11.7005H57.3048V30.2746H52.708V11.7005ZM59.1282 23.2615C59.1282 18.6677 61.9475 15.9268 66.2991 15.9268C70.6508 15.9268 73.4701 18.6677 73.4701 23.2615C73.4701 27.8552 70.712 30.6115 66.2991 30.6115C61.8862 30.6115 59.1282 27.9318 59.1282 23.2615ZM68.858 23.2615C68.858 20.7349 67.862 19.2496 66.2991 19.2496C64.7362 19.2496 63.7556 20.7808 63.7556 23.2615C63.7556 25.7421 64.7209 27.2427 66.2991 27.2427C67.8774 27.2427 68.858 25.834 68.858 23.2768V23.2615ZM75.2016 31.178H79.6145C79.8245 31.6443 80.1796 32.0303 80.6268 32.2787C81.0741 32.5269 81.5897 32.6243 82.0967 32.5562C83.8435 32.5562 84.7629 31.6068 84.7629 30.2287V27.6562H84.6709C84.3047 28.4446 83.7103 29.1052 82.9647 29.5529C82.2191 30.0005 81.3563 30.2146 80.4879 30.1674C77.1322 30.1674 74.9104 27.6102 74.9104 23.2155C74.9104 18.8208 77.0249 16.0493 80.5491 16.0493C81.4449 16.0142 82.3299 16.2535 83.0858 16.7351C83.8417 17.2169 84.4322 17.9179 84.7782 18.7443V16.1871H89.3749V30.1215C89.3749 33.4749 86.4177 35.5574 82.0508 35.5574C77.9903 35.5574 75.462 33.7352 75.2016 31.1933V31.178ZM84.7782 23.2462C84.7782 21.0105 83.7516 19.6018 82.1274 19.6018C80.5032 19.6018 79.5072 20.9952 79.5072 23.2462C79.5072 25.4971 80.4878 26.768 82.1274 26.768C83.7669 26.768 84.7782 25.5277 84.7782 23.2615V23.2462ZM91.1064 23.2462C91.1064 18.6524 93.9258 15.9115 98.2774 15.9115C102.629 15.9115 105.464 18.6524 105.464 23.2462C105.464 27.8399 102.706 30.5962 98.2774 30.5962C93.8491 30.5962 91.1064 27.9318 91.1064 23.2615V23.2462ZM100.836 23.2462C100.836 20.7196 99.8403 19.2343 98.2774 19.2343C96.7145 19.2343 95.8104 20.7808 95.8104 23.2768C95.8104 25.7727 96.7758 27.258 98.3387 27.258C99.9016 27.258 100.836 25.834 100.836 23.2768V23.2462ZM107.21 12.849C107.198 12.3852 107.324 11.9282 107.573 11.5361C107.821 11.1439 108.18 10.8343 108.604 10.6463C109.029 10.4583 109.499 10.4005 109.957 10.4802C110.414 10.5599 110.837 10.7735 111.173 11.094C111.509 11.4144 111.742 11.8273 111.843 12.2803C111.943 12.7332 111.907 13.2057 111.739 13.6382C111.57 14.0704 111.277 14.4432 110.896 14.7088C110.516 14.9745 110.065 15.1213 109.601 15.1305C109.293 15.1517 108.984 15.1089 108.694 15.0051C108.403 14.9013 108.138 14.7387 107.913 14.5272C107.689 14.3159 107.51 14.0603 107.39 13.7768C107.269 13.4933 107.208 13.1878 107.21 12.8796V12.849ZM107.21 16.2177H111.807V30.2746H107.21V16.2177ZM128.493 23.2462C128.493 27.8399 126.456 30.4583 122.962 30.4583C122.066 30.5158 121.174 30.297 120.407 29.8315C119.64 29.3658 119.034 28.676 118.672 27.8552H118.58V34.7765H113.983V16.1871H118.58V18.6983H118.672C119.017 17.864 119.611 17.1562 120.373 16.6713C121.136 16.1863 122.029 15.9478 122.931 15.988C126.456 16.0493 128.555 18.683 128.555 23.2768L128.493 23.2462ZM123.897 23.2462C123.897 21.0105 122.87 19.5865 121.261 19.5865C119.652 19.5865 118.626 21.0258 118.61 23.2462C118.595 25.4665 119.652 26.8905 121.261 26.8905C122.87 26.8905 123.897 25.4971 123.897 23.2768V23.2462ZM136.385 15.8962C140.2 15.8962 142.514 17.703 142.621 20.5971H138.438C138.438 19.6018 137.61 18.974 136.339 18.974C135.067 18.974 134.5 19.464 134.5 20.1837C134.5 20.9033 135.006 21.133 136.032 21.3474L138.974 21.9446C141.778 22.5418 142.973 23.6749 142.973 25.8033C142.973 28.7127 140.323 30.5808 136.415 30.5808C132.508 30.5808 129.949 28.7127 129.75 25.8493H134.178C134.316 26.8905 135.144 27.503 136.492 27.503C137.84 27.503 138.453 27.059 138.453 26.324C138.453 25.589 138.024 25.4358 136.921 25.2062L134.27 24.6396C131.527 24.073 130.087 22.6183 130.087 20.4746C130.118 17.7183 132.585 15.9268 136.385 15.9268V15.8962ZM158.311 30.244H153.883V27.6255H153.791C153.547 28.5046 153.011 29.2741 152.27 29.8062C151.528 30.3381 150.627 30.6007 149.715 30.5502C149.017 30.5899 148.318 30.4793 147.666 30.2259C147.014 29.9725 146.424 29.5823 145.936 29.0814C145.448 28.5807 145.073 27.9809 144.837 27.323C144.601 26.665 144.509 25.964 144.567 25.2674V16.1871H149.164V24.2108C149.164 25.8799 150.022 26.768 151.447 26.768C151.781 26.7686 152.112 26.6981 152.417 26.5607C152.72 26.4233 152.993 26.2224 153.213 25.9716C153.433 25.7207 153.598 25.4256 153.695 25.1062C153.791 24.7866 153.82 24.45 153.776 24.119V16.1871H158.373L158.311 30.244ZM160.533 16.1871H164.977V18.8974H165.069C165.312 18.03 165.838 17.2677 166.561 16.7302C167.284 16.1928 168.167 15.9101 169.068 15.9268C169.986 15.8534 170.896 16.1277 171.62 16.6952C172.344 17.2626 172.828 18.0816 172.975 18.9893H173.067C173.344 18.0719 173.92 17.2732 174.703 16.7187C175.485 16.1643 176.43 15.8856 177.388 15.9268C178.013 15.9058 178.635 16.0165 179.214 16.2517C179.795 16.4868 180.318 16.8412 180.751 17.2917C181.185 17.7424 181.519 18.2791 181.732 18.8669C181.943 19.4548 182.031 20.0809 181.985 20.7043V30.2746H177.388V21.9293C177.388 20.398 176.698 19.6937 175.411 19.6937C175.125 19.6912 174.84 19.7503 174.578 19.867C174.316 19.9837 174.081 20.1552 173.891 20.37C173.701 20.5848 173.559 20.8378 173.474 21.1121C173.39 21.3865 173.367 21.6756 173.404 21.9599V30.2746H169.037V21.868C169.037 20.4593 168.348 19.6937 167.091 19.6937C166.801 19.6938 166.513 19.7554 166.25 19.8743C165.985 19.9935 165.747 20.1673 165.556 20.3843C165.363 20.6012 165.219 20.8566 165.131 21.1336C165.046 21.4105 165.018 21.7025 165.053 21.9905V30.2746H160.456L160.533 16.1871Z" fill="#394149"/>
<path d="M39.8524 12.5427C39.0726 10.7609 38.0406 9.10039 36.7878 7.61212C34.9361 5.34639 32.6252 3.49825 30.0071 2.18935C27.3891 0.880471 24.5233 0.140494 21.5986 0.0181322C18.6738 -0.10423 15.7562 0.393794 13.0378 1.47945C10.3196 2.56509 7.86213 4.21374 5.82734 6.31688C3.79253 8.42001 2.22648 10.93 1.23228 13.6815C0.238072 16.433 -0.16177 19.3639 0.0590893 22.2809C0.279964 25.1981 1.1165 28.0353 2.51367 30.606C3.91085 33.1768 5.83697 35.4227 8.16527 37.1959C9.65922 38.3564 11.31 39.2998 13.0685 39.9981C15.5339 41.0078 18.1726 41.5278 20.837 41.5293C26.3369 41.5172 31.6076 39.3263 35.4938 35.4369C39.38 31.5476 41.5645 26.2771 41.5685 20.7809C41.5725 17.9458 40.9882 15.1407 39.8524 12.5427ZM20.8217 4.22804C23.2145 4.2278 25.5783 4.75041 27.7475 5.75929C27.2186 5.98771 26.6624 6.14725 26.0927 6.234C24.2181 6.50517 22.4816 7.37489 21.1423 8.71335C19.8029 10.0518 18.9326 11.7872 18.6612 13.6606C18.5422 14.7112 18.064 15.6885 17.3075 16.4278C16.551 17.1671 15.5625 17.6228 14.5088 17.7184C12.6342 17.9896 10.8977 18.8593 9.55835 20.1978C8.21902 21.5362 7.34872 23.2716 7.07737 25.1449C6.98549 26.1439 6.55899 27.0827 5.86688 27.8093C4.67272 25.2878 4.13627 22.5052 4.30746 19.7208C4.47864 16.9364 5.35189 14.2404 6.84595 11.8839C8.33999 9.52739 10.4063 7.58687 12.8526 6.24294C15.2988 4.89901 18.0456 4.19535 20.837 4.19742L20.8217 4.22804ZM8.14995 31.4996C8.33382 31.3312 8.51769 31.1781 8.70156 30.9943C10.0647 29.6736 10.9397 27.9301 11.1838 26.0484C11.2828 24.9906 11.7553 24.0026 12.5169 23.2615C13.2497 22.4992 14.2361 22.0308 15.2903 21.9446C17.1648 21.6734 18.9013 20.8037 20.2407 19.4652C21.58 18.1268 22.4503 16.3914 22.7217 14.5181C22.7881 13.4117 23.2631 12.3694 24.0548 11.5934C24.8057 10.8459 25.8014 10.3946 26.8588 10.3224C28.5809 10.0856 30.187 9.32055 31.4556 8.13275C32.9 9.33029 34.1237 10.7709 35.0717 12.3896C35.0135 12.4682 34.9467 12.5401 34.8725 12.604C34.1412 13.373 33.1561 13.8517 32.0991 13.9515C30.2226 14.2179 28.4835 15.0862 27.1432 16.4254C25.8031 17.7648 24.9343 19.5027 24.6677 21.3781C24.5597 22.4322 24.0903 23.4166 23.3392 24.1645C22.5879 24.9125 21.6012 25.3778 20.5459 25.4818C18.6658 25.7509 16.9229 26.6189 15.5757 27.9568C14.2287 29.2948 13.3493 31.0312 13.0685 32.9084C12.986 33.6567 12.7288 34.3753 12.3177 35.0062C10.7456 34.0733 9.33759 32.8888 8.14995 31.4996ZM20.8217 37.4102C19.2669 37.4119 17.7195 37.1954 16.2249 36.7671C16.7362 35.8147 17.0686 34.7767 17.2056 33.7046C17.313 32.6528 17.7802 31.6702 18.5282 30.9226C19.2763 30.1751 20.2595 29.7082 21.312 29.6009C23.1894 29.3328 24.9294 28.4644 26.2718 27.1256C27.6141 25.787 28.4867 24.0498 28.7588 22.1743C28.8662 21.1225 29.3334 20.1399 30.0815 19.3923C30.8295 18.6448 31.8127 18.1779 32.8653 18.0706C34.278 17.887 35.6245 17.3613 36.7878 16.5393C37.4338 18.9861 37.5103 21.5482 37.0115 24.0291C36.5128 26.51 35.4519 28.844 33.9104 30.8516C32.369 32.8591 30.3879 34.4872 28.1189 35.6109C25.8501 36.7345 23.3539 37.3239 20.8217 37.3337V37.4102Z" fill="#394149"/>
</svg>
