<svg width="199" height="45" viewBox="0 0 199 45" fill="none" xmlns="http://www.w3.org/2000/svg">
<path d="M20.5 6.5V0H0V44.6588H20.5V38.1588C16.3006 38.1588 12.2731 36.491 9.3037 33.5224C6.33426 30.5538 4.66605 26.5277 4.66605 22.3294C4.66605 18.1312 6.33426 14.1049 9.3037 11.1363C12.2731 8.16775 16.3006 6.5 20.5 6.5Z" fill="#394149"/>
<path d="M20.5 6.5V38.1588C24.6994 38.1588 28.7269 36.491 31.6964 33.5224C34.6658 30.5538 36.3339 26.5277 36.3339 22.3294C36.3339 18.1312 34.6658 14.1049 31.6964 11.1363C28.7269 8.16775 24.6994 6.5 20.5 6.5Z" fill="#394149"/>
<path d="M47.8384 10.4765H52.428V32.5765H47.8384V10.4765Z" fill="#394149"/>
<path d="M54.9981 25.0059C54.9981 23.4159 55.4704 21.8618 56.355 20.5403C57.2395 19.2189 58.4966 18.1898 59.9669 17.5834C61.4373 16.9771 63.0545 16.8208 64.6137 17.1343C66.1729 17.4479 67.6039 18.2172 68.7253 19.3447C69.8467 20.4723 70.6081 21.9072 70.9129 23.4678C71.2174 25.0284 71.0519 26.6442 70.4369 28.1106C69.8219 29.5769 68.7854 30.8278 67.4586 31.7044C66.1318 32.5813 64.5744 33.0444 62.9839 33.0353C61.9291 33.0436 60.8832 32.8413 59.9076 32.4399C58.932 32.0388 58.0462 31.4469 57.3024 30.6992C56.5586 29.9513 55.9717 29.0624 55.576 28.0848C55.1803 27.1072 54.9839 26.0605 54.9981 25.0059ZM66.5026 25.0059C66.4845 24.3204 66.2647 23.6555 65.8706 23.0943C65.4765 22.533 64.9258 22.1003 64.2869 21.8504C63.6482 21.6005 62.95 21.5444 62.2796 21.6892C61.6091 21.8339 60.9962 22.173 60.5175 22.6642C60.0388 23.1553 59.7156 23.7766 59.5883 24.4504C59.461 25.1243 59.5352 25.8206 59.8017 26.4524C60.0682 27.0842 60.5151 27.6237 61.0866 28.0028C61.658 28.3821 62.3286 28.5844 63.0145 28.5848C63.4816 28.5939 63.9455 28.5066 64.3772 28.3283C64.8089 28.1501 65.1992 27.8847 65.5237 27.5489C65.8481 27.213 66.0998 26.8137 66.263 26.3763C66.4263 25.9387 66.4974 25.4722 66.472 25.0059H66.5026Z" fill="#394149"/>
<path d="M89.1291 17.4353V31.8271C89.1291 36.9047 85.1515 39.0612 81.128 39.0612C79.7087 39.1776 78.2852 38.8957 77.0177 38.2473C75.7501 37.5988 74.6887 36.6094 73.953 35.3906L77.8235 33.1577C78.1371 33.7899 78.636 34.3115 79.2538 34.653C79.8715 34.9945 80.5786 35.1398 81.281 35.0694C81.7284 35.1245 82.1825 35.0801 82.6107 34.9394C83.0391 34.7986 83.4309 34.565 83.7583 34.2552C84.0858 33.9453 84.3407 33.5671 84.5048 33.1473C84.669 32.7276 84.7383 32.2767 84.7078 31.8271V30.4353C84.1738 31.0827 83.496 31.5966 82.7287 31.9364C81.9611 32.2763 81.1251 32.4326 80.2866 32.393C78.2578 32.393 76.3123 31.5873 74.8778 30.1531C73.4432 28.7192 72.6373 26.7741 72.6373 24.7459C72.6373 22.7178 73.4432 20.7728 74.8778 19.3387C76.3123 17.9045 78.2578 17.0989 80.2866 17.0989C81.1251 17.0592 81.9611 17.2155 82.7287 17.5554C83.496 17.8952 84.1738 18.4091 84.7078 19.0565V17.5271L89.1291 17.4353ZM84.7078 24.7C84.7383 23.9684 84.5492 23.2442 84.1647 22.6208C83.7803 21.9974 83.2182 21.5033 82.5504 21.2018C81.8828 20.9004 81.1404 20.8055 80.4183 20.9294C79.6963 21.0533 79.0278 21.3902 78.4989 21.8969C77.9701 22.4036 77.6049 23.057 77.4504 23.7729C77.2959 24.4888 77.359 25.2344 77.6318 25.9141C77.9047 26.5937 78.3747 27.1763 78.9813 27.5868C79.588 27.9973 80.3037 28.2171 81.0362 28.2177C81.5143 28.2521 81.9942 28.1859 82.4449 28.0234C82.8957 27.8609 83.3076 27.6056 83.6535 27.274C83.9995 26.9426 84.2721 26.5422 84.4537 26.0988C84.6353 25.6555 84.7219 25.1789 84.7078 24.7Z" fill="#394149"/>
<path d="M91.7146 25.0059C91.7146 23.4172 92.1861 21.8642 93.0692 20.5434C93.9524 19.2226 95.2077 18.1935 96.6762 17.5863C98.1447 16.9789 99.7603 16.8208 101.319 17.1319C102.877 17.443 104.308 18.2092 105.431 19.3336C106.554 20.4582 107.317 21.8903 107.625 23.4488C107.934 25.0074 107.772 26.6223 107.162 28.0892C106.552 29.5562 105.52 30.8091 104.197 31.6896C102.875 32.5701 101.32 33.0384 99.731 33.0353C98.6741 33.0456 97.6257 32.8448 96.6476 32.4447C95.6694 32.0446 94.7808 31.4533 94.0343 30.7054C93.2875 29.9575 92.6978 29.0682 92.2994 28.0895C91.9012 27.1108 91.7023 26.0624 91.7146 25.0059ZM103.219 25.0059C103.201 24.3198 102.981 23.6542 102.586 23.0926C102.191 22.5312 101.639 22.0985 101 21.8491C100.36 21.5996 99.6612 21.5444 98.9904 21.6905C98.3195 21.8364 97.7067 22.1771 97.2286 22.6697C96.7505 23.1624 96.4285 23.7851 96.303 24.4599C96.1774 25.1347 96.2538 25.8315 96.5226 26.463C96.7914 27.0946 97.2407 27.6328 97.8142 28.0103C98.3876 28.3876 99.0597 28.5875 99.7463 28.5847C100.213 28.5939 100.677 28.5066 101.109 28.3283C101.541 28.1501 101.931 27.8847 102.255 27.5489C102.58 27.213 102.832 26.8137 102.995 26.3763C103.158 25.9387 103.229 25.4722 103.204 25.0059H103.219Z" fill="#394149"/>
<path d="M109.874 13.3824C109.874 12.844 110.034 12.3176 110.333 11.87C110.632 11.4222 111.057 11.0733 111.555 10.8673C112.053 10.6612 112.6 10.6073 113.128 10.7123C113.656 10.8174 114.142 11.0767 114.523 11.4574C114.903 11.8381 115.163 12.3233 115.268 12.8512C115.373 13.3793 115.319 13.9267 115.113 14.4242C114.907 14.9216 114.558 15.3468 114.11 15.6459C113.662 15.9451 113.136 16.1047 112.597 16.1047C111.877 16.0968 111.189 15.8074 110.68 15.2986C110.171 14.7898 109.882 14.102 109.874 13.3824ZM110.318 17.4353H114.907V32.5765H110.318V17.4353Z" fill="#394149"/>
<path d="M134.55 25.0059C134.602 26.0129 134.454 27.0201 134.114 27.9696C133.775 28.919 133.251 29.792 132.573 30.5382C131.894 31.2846 131.075 31.8893 130.162 32.3179C129.249 32.7464 128.261 32.9902 127.253 33.0353C126.398 33.0922 125.541 32.9553 124.746 32.6349C123.952 32.3143 123.24 31.8187 122.663 31.1847V38.6635H118.074V17.4353H122.663V18.8577C123.24 18.2255 123.953 17.7322 124.748 17.4143C125.543 17.0964 126.399 16.9624 127.253 17.0224C128.257 17.0675 129.241 17.3099 130.151 17.7355C131.061 18.1612 131.878 18.7619 132.556 19.5032C133.233 20.2445 133.758 21.112 134.1 22.0563C134.443 23.0004 134.596 24.0026 134.55 25.0059ZM129.961 25.0059C129.943 24.2955 129.715 23.6063 129.307 23.0247C128.899 22.4431 128.328 21.9946 127.666 21.736C127.004 21.4772 126.28 21.4197 125.586 21.5704C124.891 21.721 124.257 22.0734 123.761 22.5831C123.266 23.0929 122.933 23.7374 122.802 24.436C122.672 25.1345 122.751 25.8559 123.029 26.5099C123.307 27.1637 123.772 27.7211 124.366 28.112C124.959 28.5029 125.655 28.7098 126.366 28.7071C126.852 28.7277 127.338 28.6453 127.791 28.4651C128.244 28.285 128.653 28.0112 128.993 27.6617C129.332 27.3122 129.594 26.8949 129.761 26.4373C129.928 25.9795 129.996 25.4918 129.961 25.0059Z" fill="#394149"/>
<path d="M148.518 28.0341C148.518 31.5212 145.458 33.0047 142.215 33.0047C140.892 33.1237 139.564 32.8434 138.402 32.2C137.24 31.5565 136.298 30.5795 135.698 29.3953L139.645 27.1624C139.801 27.7081 140.14 28.1836 140.605 28.5093C141.07 28.8351 141.633 28.9912 142.2 28.9518C143.286 28.9518 143.837 28.6153 143.837 28.0036C143.837 26.3365 136.386 27.2236 136.386 21.9777C136.386 18.6741 139.171 17.0224 142.322 17.0224C143.52 16.9687 144.71 17.2405 145.766 17.8086C146.822 18.3768 147.704 19.2203 148.319 20.2494L144.372 22.3294C144.198 21.9348 143.913 21.5993 143.552 21.3632C143.19 21.127 142.769 21.0005 142.337 20.9988C141.542 20.9988 141.068 21.3047 141.068 21.84C141.068 23.5836 148.518 22.4365 148.518 28.0341Z" fill="#394149"/>
<path d="M165.147 17.4353V32.5765H160.558V31.1541C160.036 31.7838 159.374 32.2819 158.626 32.6088C157.876 32.9356 157.061 33.0816 156.244 33.0353C153.184 33.0353 150.568 30.8482 150.568 26.7647V17.4353H155.157V26.0765C155.121 26.4377 155.164 26.8025 155.283 27.1457C155.402 27.4887 155.593 27.802 155.844 28.0638C156.097 28.3255 156.403 28.5295 156.741 28.6618C157.079 28.7939 157.442 28.8511 157.804 28.8294C159.456 28.8294 160.619 27.8506 160.619 25.7706V17.4353H165.147Z" fill="#394149"/>
<path d="M191.155 23.2777V32.5765H186.565V23.6753C186.565 22.1459 185.846 21.1977 184.393 21.1977C182.94 21.1977 182.022 22.253 182.022 24.0424V32.5765H177.432V23.6753C177.432 22.1459 176.713 21.1977 175.26 21.1977C173.806 21.1977 172.888 22.253 172.888 24.0424V32.5765H168.299V17.4353H172.888V18.8271C173.364 18.2123 173.984 17.7253 174.695 17.4102C175.405 17.0952 176.184 16.9618 176.958 17.0224C177.733 16.9818 178.508 17.144 179.202 17.4925C179.897 17.8411 180.489 18.3643 180.92 19.0106C181.425 18.3352 182.092 17.7987 182.86 17.4511C183.626 17.1033 184.471 16.9558 185.311 17.0224C188.891 17.0224 191.155 19.5 191.155 23.2777Z" fill="#394149"/>
<path d="M195.01 17.3435C196.869 17.3435 198.376 15.8371 198.376 13.9788C198.376 12.1206 196.869 10.6141 195.01 10.6141C193.151 10.6141 191.644 12.1206 191.644 13.9788C191.644 15.8371 193.151 17.3435 195.01 17.3435Z" fill="#394149"/>
</svg>
