<svg width="194" height="51" viewBox="0 0 194 51" fill="none" xmlns="http://www.w3.org/2000/svg">
<path d="M31.3406 11.9408H34.4012V33.1688H43.583V36.2188H31.3406V11.9408ZM53.1168 11.9408C54.9328 11.9408 56.708 12.4774 58.2179 13.4829C59.7279 14.4883 60.9048 15.9172 61.5997 17.5892C62.2947 19.2612 62.4765 21.101 62.1222 22.8758C61.7679 24.6507 60.8935 26.2811 59.6093 27.5607C58.3252 28.8405 56.6892 29.7119 54.908 30.0649C53.1271 30.418 51.2809 30.2368 49.6031 29.5443C47.9253 28.8517 46.4914 27.6789 45.4824 26.1742C44.4735 24.6695 43.935 22.9005 43.935 21.0908C43.935 19.8892 44.1725 18.6993 44.6339 17.5892C45.0953 16.479 45.7717 15.4704 46.6244 14.6208C47.4769 13.7711 48.489 13.097 49.6031 12.6372C50.717 12.1775 51.9111 11.9408 53.1168 11.9408ZM53.1168 27.1908C54.3274 27.1908 55.511 26.833 56.5176 26.1628C57.5242 25.4924 58.3088 24.5397 58.7721 23.4251C59.2354 22.3105 59.3566 21.0841 59.1203 19.9007C58.8842 18.7174 58.3012 17.6305 57.4451 16.7775C56.5891 15.9244 55.4984 15.3434 54.3111 15.108C53.1236 14.8726 51.8929 14.9934 50.7744 15.4551C49.6559 15.9168 48.6998 16.6986 48.0272 17.7018C47.3546 18.7049 46.9956 19.8843 46.9956 21.0908C47.0037 22.7033 47.6521 24.2471 48.7992 25.3844C49.9463 26.5218 51.4987 27.1603 53.1168 27.1603V27.1908ZM46.9956 33.1993H59.238V36.2493H46.9956V33.1993ZM86.1714 36.2493H83.1108V34.0685C81.137 35.4453 78.7867 36.1852 76.3774 36.1883C74.323 36.202 72.2981 35.7003 70.4894 34.7293C68.6806 33.7582 67.1462 32.3492 66.0275 30.6321C64.9087 28.9149 64.2415 26.9448 64.0876 24.9031C63.9335 22.8616 64.2975 20.8141 65.1461 18.9497C65.9946 17.0851 67.3004 15.4632 68.9431 14.2338C70.5858 13.0042 72.5126 12.2063 74.546 11.9138C76.5794 11.6211 78.6541 11.8433 80.5786 12.5596C82.5032 13.2759 84.2161 14.4633 85.5592 16.0125L83.3097 18.0103C82.2881 16.872 80.9969 16.0067 79.5537 15.4933C78.1106 14.9796 76.5615 14.8342 75.0476 15.0701C73.5335 15.306 72.103 15.9158 70.8859 16.8438C69.669 17.7719 68.7045 18.9886 68.0804 20.3833C67.4562 21.7779 67.1922 23.306 67.3125 24.8284C67.4328 26.3508 67.9334 27.8189 68.7689 29.099C69.6045 30.3791 70.7481 31.4306 72.0958 32.1574C73.4434 32.8842 74.9523 33.2633 76.4845 33.2603C77.7562 33.2629 79.0135 32.9917 80.1704 32.4653C81.3272 31.9389 82.3563 31.1697 83.1873 30.2103H74.9236V27.1603H86.202L86.1714 36.2493ZM97.4344 12.0018C99.2504 12.0018 101.026 12.5384 102.536 13.5439C104.045 14.5493 105.222 15.9782 105.917 17.6502C106.612 19.3222 106.794 21.162 106.44 22.9368C106.086 24.7117 105.211 26.3421 103.927 27.6217C102.643 28.9015 101.007 29.7729 99.2256 30.1259C97.4446 30.479 95.5985 30.2978 93.9207 29.6053C92.2428 28.9127 90.8089 27.7399 89.8 26.2352C88.7911 24.7305 88.2526 22.9615 88.2526 21.1518C88.2445 19.9424 88.4771 18.7436 88.9368 17.6244C89.3965 16.5052 90.0742 15.4879 90.9309 14.6315C91.7876 13.7749 92.8061 13.0961 93.9277 12.6342C95.0493 12.1724 96.2515 11.9367 97.465 11.9408L97.4344 12.0018ZM97.4344 27.2518C98.645 27.2518 99.8286 26.894 100.835 26.2238C101.842 25.5534 102.626 24.6007 103.09 23.4861C103.553 22.3715 103.674 21.1451 103.438 19.9617C103.202 18.7784 102.619 17.6915 101.763 16.8385C100.907 15.9854 99.816 15.4044 98.6286 15.169C97.4411 14.9336 96.2105 15.0544 95.092 15.5161C93.9735 15.9778 93.0173 16.7596 92.3448 17.7628C91.6722 18.7659 91.3132 19.9453 91.3132 21.1518C91.3374 22.759 91.9971 24.2917 93.1491 25.4169C94.3009 26.5419 95.8521 27.1685 97.465 27.1603L97.4344 27.2518ZM91.3132 33.2603H103.556V36.3103H91.3132V33.2603ZM109.876 11.9408H112.936V36.1883H109.876V11.9408ZM117.175 11.9408H120.236C120.394 11.9242 120.553 11.9242 120.71 11.9408C121.992 11.8022 123.289 11.9342 124.516 12.3281C125.743 12.7222 126.873 13.3692 127.833 14.2274C128.793 15.0855 129.56 16.1354 130.085 17.3088C130.611 18.4821 130.882 19.7526 130.882 21.0374C130.882 22.3222 130.611 23.5927 130.085 24.766C129.56 25.9394 128.793 26.9893 127.833 27.8474C126.873 28.7056 125.743 29.3526 124.516 29.7467C123.289 30.1406 121.992 30.2726 120.71 30.134H120.236V36.234H117.175V11.9408ZM120.236 14.9908V27.0535H120.71C121.575 27.1682 122.454 27.0976 123.289 26.8461C124.123 26.5948 124.895 26.1686 125.551 25.5961C126.207 25.0236 126.733 24.318 127.093 23.5265C127.453 22.735 127.64 21.876 127.64 21.0069C127.64 20.1378 127.453 19.2788 127.093 18.4873C126.733 17.6958 126.207 16.9902 125.551 16.4177C124.895 15.8451 124.123 15.419 123.289 15.1675C122.454 14.9162 121.575 14.8456 120.71 14.9603C120.544 14.9775 120.379 15.0133 120.221 15.067L120.236 14.9908ZM142.288 13.6945L140.023 15.4788C139.632 15.0719 139.133 14.7846 138.584 14.6507C138.035 14.5168 137.459 14.5418 136.924 14.7228C136.389 14.9037 135.917 15.2331 135.563 15.6723C135.209 16.1115 134.988 16.6422 134.927 17.202V17.446C134.927 18.788 135.86 19.6878 137.681 19.8098C144.69 20.2368 147.904 23.5155 147.904 27.8465V28.121C147.723 29.8351 147.052 31.4614 145.97 32.8064C144.888 34.1515 143.442 35.1584 141.802 35.7079C140.163 36.2572 138.4 36.3258 136.722 35.9054C135.045 35.4851 133.524 34.5934 132.341 33.3365L134.682 31.537C135.227 32.1191 135.892 32.576 136.632 32.8763C137.372 33.1764 138.169 33.3127 138.967 33.2755C140.441 33.353 141.888 32.86 143.005 31.8994C144.123 30.9389 144.826 29.5852 144.966 28.121V27.9075C144.966 23.8358 140.956 23.0885 137.482 22.753C134.269 22.448 131.958 20.4503 131.958 17.568V17.446C132.071 15.9454 132.759 14.5455 133.878 13.5353C134.997 12.525 136.462 11.9815 137.972 12.017C138.772 11.9935 139.568 12.1373 140.309 12.4394C141.05 12.7416 141.718 13.1951 142.272 13.7708L142.288 13.6945ZM159.886 33.0925C163.697 33.0925 166.711 28.9903 166.711 23.9425V11.7425H169.772V23.9425C169.772 30.6525 165.365 36.0663 159.947 36.0663C154.53 36.0663 150.123 30.6525 150.123 23.9425V11.7425H153.183V23.9425C153.061 29.0665 156.076 33.1688 159.871 33.1688L159.886 33.0925ZM193.262 36.1425H190.201V21.045L183.147 30.195L176.092 21.045V36.1883H173.031V11.9408L183.131 25.193L193.231 11.9408L193.262 36.1425Z" fill="#394149"/>
<path d="M16.6497 8.296C16.6497 6.09576 15.7727 3.98563 14.2115 2.42984C12.6503 0.874038 10.5327 0 8.32485 0C6.11696 0 3.99951 0.874038 2.43829 2.42984C0.877078 3.98563 0 6.09576 0 8.296V33.3823L6.85576 38.2775V50.203H9.79394V38.2775L16.6497 33.3823V8.296ZM13.7115 22.326L9.79394 26.23V22.57L13.7115 18.666V22.326ZM2.99939 18.666L6.91697 22.57V26.23L2.99939 22.326V18.666ZM13.7115 14.518L8.32485 19.886L2.93818 14.396V10.736L8.32485 16.104L13.7115 10.736V14.518ZM8.32485 2.928C9.50953 2.93322 10.6598 3.32531 11.5995 4.04419C12.5393 4.76308 13.2166 5.76912 13.5279 6.90825L8.32485 12.078L3.12182 6.90825C3.42167 5.75779 4.09413 4.7381 5.0349 4.00741C5.97567 3.27671 7.13211 2.87583 8.32485 2.86698V2.928ZM2.93818 31.903V26.413L6.85576 30.317V34.6785L2.93818 31.903ZM9.79394 34.6937V30.317L13.7115 26.413V31.8877L9.79394 34.6937Z" fill="#394149"/>
</svg>
