<svg width="236" height="61" viewBox="0 0 236 61" fill="none" xmlns="http://www.w3.org/2000/svg">
<path d="M78.8707 15.683H73.3936V40.332H88.5561V35.5022H78.8707V15.683Z" fill="#243A5A"/>
<path d="M89.0791 31.9713C89.0791 37.2342 92.6193 40.7317 97.9628 40.7317C103.273 40.7317 106.813 37.2342 106.813 31.9713C106.813 26.7084 103.273 23.1776 97.9628 23.1776C92.6193 23.1776 89.0791 26.7084 89.0791 31.9713ZM94.2556 31.9379C94.2556 29.4398 95.7252 27.7744 97.9628 27.7744C100.167 27.7744 101.637 29.4398 101.637 31.9379C101.637 34.4696 100.167 36.135 97.9628 36.135C95.7252 36.135 94.2556 34.4696 94.2556 31.9379Z" fill="#243A5A"/>
<path d="M107.64 31.7049C107.64 36.7345 110.914 40.132 115.556 40.132C117.793 40.132 119.73 39.3326 120.699 38.0336V40.332C120.699 42.6303 119.263 44.1625 116.725 44.1625C114.454 44.1625 112.884 43.0966 112.784 41.198H107.574C108.041 45.7614 111.581 48.8258 116.424 48.8258C122.135 48.8258 125.742 45.1285 125.742 39.266V23.6773H121.1L120.833 25.376C119.897 24.0103 117.927 23.1111 115.656 23.1111C110.98 23.1111 107.64 26.6085 107.64 31.7049ZM112.851 31.5716C112.851 29.1732 114.454 27.5744 116.491 27.5744C118.862 27.5744 120.599 29.14 120.599 31.5716C120.599 34.0032 118.895 35.6687 116.524 35.6687C114.487 35.6687 112.851 34.0032 112.851 31.5716Z" fill="#243A5A"/>
<path d="M127.241 31.9713C127.241 37.2342 130.781 40.7317 136.125 40.7317C141.435 40.7317 144.975 37.2342 144.975 31.9713C144.975 26.7084 141.435 23.1776 136.125 23.1776C130.781 23.1776 127.241 26.7084 127.241 31.9713ZM132.418 31.9379C132.418 29.4398 133.887 27.7744 136.125 27.7744C138.329 27.7744 139.798 29.4398 139.798 31.9379C139.798 34.4696 138.329 36.135 136.125 36.135C133.887 36.135 132.418 34.4696 132.418 31.9379Z" fill="#243A5A"/>
<path d="M149.409 21.0792C151.012 21.0792 152.315 19.78 152.315 18.148C152.315 16.5158 151.012 15.25 149.409 15.25C147.773 15.25 146.47 16.5158 146.47 18.148C146.47 19.78 147.773 21.0792 149.409 21.0792ZM146.804 40.332H151.981V23.6773H146.804V40.332Z" fill="#243A5A"/>
<path d="M154.995 48.3262H160.071V38.6665C161.039 39.9323 163.244 40.7983 165.548 40.7983C170.524 40.7983 173.53 37.0011 173.397 31.7381C173.262 26.3753 170.157 23.1443 165.515 23.1443C163.143 23.1443 160.906 24.1769 159.97 25.7092L159.703 23.6773H154.995V48.3262ZM160.171 32.0046C160.171 29.5065 161.84 27.841 164.246 27.841C166.683 27.841 168.22 29.5397 168.22 32.0046C168.22 34.4696 166.683 36.1683 164.246 36.1683C161.84 36.1683 160.171 34.5028 160.171 32.0046Z" fill="#243A5A"/>
<path d="M173.944 35.0691C174.077 38.4334 176.75 40.7649 180.958 40.7649C184.999 40.7649 187.805 38.6331 187.805 35.2023C187.805 32.7375 186.335 31.1053 183.595 30.439L180.625 29.7062C179.556 29.4398 178.888 29.1732 178.888 28.3072C178.888 27.4412 179.588 26.8749 180.625 26.8749C181.793 26.8749 182.56 27.6411 182.528 28.7735H187.17C187.036 25.3094 184.398 23.1443 180.724 23.1443C177.018 23.1443 174.245 25.3428 174.245 28.6737C174.245 30.9053 175.481 32.7375 178.787 33.6035L181.725 34.3695C182.594 34.6027 182.961 35.0024 182.961 35.5686C182.961 36.4014 182.193 36.9344 180.891 36.9344C179.388 36.9344 178.586 36.2349 178.586 35.0691H173.944Z" fill="#243A5A"/>
<path d="M195.676 40.7649C197.715 40.7649 199.751 39.8322 200.786 38.4666L201.121 40.332H205.964V23.6773H200.82V32.3378C200.82 34.8359 200.086 36.2015 197.715 36.2015C195.877 36.2015 194.675 35.3689 194.675 32.2711V23.6773H189.531V34.1364C189.531 38.1003 191.736 40.7649 195.676 40.7649Z" fill="#243A5A"/>
<path d="M214.12 40.332V31.2385C214.12 28.4405 215.623 27.6411 217.092 27.6411C218.728 27.6411 219.797 28.6404 219.797 30.7056V40.332H224.873V31.2385C224.873 28.4072 226.343 27.6078 227.812 27.6078C229.448 27.6078 230.551 28.607 230.551 30.7056V40.332H235.561V29.4398C235.561 25.6426 233.557 23.1111 229.248 23.1111C226.844 23.1111 224.873 24.2768 224.005 26.0755C223.003 24.2768 221.266 23.1111 218.494 23.1111C216.658 23.1111 214.954 23.9437 213.953 25.2761L213.753 23.6773H208.942V40.332H214.12Z" fill="#243A5A"/>
<path d="M0 30.5C0 16.1221 0 8.93324 4.47843 4.46662C8.95686 0 16.1648 0 30.5806 0C44.9965 0 52.2044 0 56.6829 4.46662C61.1613 8.93324 61.1613 16.1221 61.1613 30.5C61.1613 44.8778 61.1613 52.0667 56.6829 56.5334C52.2044 61 44.9965 61 30.5806 61C16.1648 61 8.95686 61 4.47843 56.5334C0 52.0667 0 44.8778 0 30.5Z" fill="#243A5A"/>
<path d="M36.6968 39.65C37.5413 39.65 38.2412 40.3394 38.0735 41.1649C37.777 42.6228 37.0569 43.9741 35.9865 45.0416C34.5529 46.4716 32.6083 47.275 30.5806 47.275C28.553 47.275 26.6085 46.4716 25.1747 45.0416C24.1044 43.9741 23.3842 42.6228 23.0879 41.1649C22.92 40.3394 23.62 39.65 24.4645 39.65H36.6968Z" fill="#2DF8BB"/>
<path d="M39.9113 27.1092C39.0955 27.3271 38.596 28.1782 39.0096 28.9125C39.4449 29.6854 40.047 30.3599 40.7796 30.8834C41.9297 31.7054 43.33 32.1043 44.7421 32.0119C46.154 31.9196 47.4902 31.342 48.5229 30.3772C49.5558 29.4125 50.2211 28.1204 50.4058 26.7212C50.5905 25.322 50.2831 23.9023 49.5359 22.7038C48.7887 21.5054 47.6479 20.6025 46.308 20.1488C44.9681 19.6951 43.512 19.7189 42.1877 20.216C41.3443 20.5326 40.5877 21.0287 39.9666 21.6628C39.3766 22.2653 39.6382 23.2165 40.3695 23.6375L41.1452 24.0842C42.3248 24.7636 42.0923 26.5263 40.7764 26.878L39.9113 27.1092Z" fill="#2DF8BB"/>
<path d="M21.2502 27.1092C22.0659 27.3271 22.5654 28.1782 22.1518 28.9125C21.7165 29.6854 21.1144 30.3599 20.382 30.8834C19.2319 31.7054 17.8314 32.1043 16.4195 32.0119C15.0075 31.9196 13.6713 31.342 12.6385 30.3772C11.6058 29.4125 10.9403 28.1204 10.7556 26.7212C10.571 25.322 10.8784 23.9023 11.6256 22.7038C12.3728 21.5054 13.5136 20.6025 14.8535 20.1488C16.1934 19.6951 17.6496 19.7189 18.9739 20.216C19.8172 20.5326 20.5739 21.0287 21.195 21.6628C21.785 22.2653 21.5233 23.2165 20.7919 23.6375L20.0162 24.0842C18.8366 24.7636 19.0693 26.5263 20.385 26.878L21.2502 27.1092Z" fill="#2DF8BB"/>
</svg>
