<svg data-v-fde0c5aa="" xmlns="http://www.w3.org/2000/svg" viewBox="0 0 300 300" class="iconAbove"><!----><defs data-v-fde0c5aa=""><!----></defs><rect data-v-fde0c5aa="" fill="transparent" x="0" y="0" width="300px" height="300px" class="logo-background-square"></rect><defs data-v-fde0c5aa=""><!----></defs><g data-v-fde0c5aa="" id="f39dcf1f-2146-4cbc-8ff2-25587472a70f" fill="#000000" transform="matrix(4.232138902767084,0,0,4.232138902767084,39.202608540389846,179.46239377436325)"><path d="M8.58 12.75C8.08 13.10 7.18 13.43 6.27 13.43C3.88 13.43 2.41 10.79 2.41 8.09C2.41 5.43 4.03 3.91 6.09 3.91C7.29 3.91 8.18 4.40 8.61 4.86C8.67 5.07 8.78 5.66 8.86 6.30C8.95 6.33 9.06 6.36 9.17 6.36C9.25 6.36 9.34 6.33 9.41 6.31C9.45 5.35 9.65 4.12 9.65 4.00C9.65 3.92 9.63 3.89 9.58 3.86C9.18 3.74 7.77 3.40 6.27 3.40C3.15 3.40 0.90 5.60 0.90 8.78C0.90 11.58 2.76 13.99 6.09 13.99C7.32 13.99 8.58 13.80 9.28 13.61C9.42 13.58 9.45 13.54 9.46 13.43C9.52 12.81 9.58 12.31 9.76 11.40C9.58 11.26 9.42 11.26 9.24 11.26C9.07 11.65 8.90 12.24 8.58 12.75ZM16.13 12.03C16.13 10.92 16.17 8.90 16.17 8.61C16.17 7.60 15.67 6.58 14.21 6.58C14.07 6.58 12.53 7.06 12.28 7.22C11.75 7.66 11.55 7.95 11.55 8.32C11.55 8.60 11.59 8.85 12.11 8.85C12.42 8.85 12.71 8.74 12.71 8.67C12.71 8.37 12.71 8.05 12.89 7.67C13.10 7.22 13.90 7.14 14.10 7.14C14.60 7.14 14.99 7.59 14.99 8.67L14.99 10.00C13.17 10.35 12.25 10.74 11.91 10.91C11.59 11.06 11.30 11.52 11.30 12.10C11.30 13.27 12.25 13.99 12.78 13.99C13.72 13.71 14.35 13.37 15.01 12.96C15.05 13.38 15.34 13.86 15.78 13.99C15.86 13.92 16.28 13.59 17.32 13.41C17.32 13.41 17.35 13.36 17.35 13.26C17.35 13.20 17.35 13.10 17.29 13.03C17.12 13.03 16.91 13.05 16.79 13.05C16.23 13.05 16.13 12.49 16.13 12.03ZM13.44 13.15C12.92 13.15 12.54 12.42 12.54 12.03C12.54 11.58 12.67 11.30 12.92 11.17C13.38 10.91 13.94 10.64 14.99 10.50C14.99 11.58 14.95 12.40 14.95 12.40C14.62 12.71 13.90 13.15 13.44 13.15ZM19.68 6.58C19.54 6.58 19.12 6.89 17.89 7.06C17.89 7.06 17.86 7.14 17.86 7.22C17.86 7.31 17.88 7.38 17.93 7.43C18.10 7.43 18.34 7.42 18.48 7.42C19.18 7.43 19.18 8.29 19.18 9.21C19.18 10.29 19.18 11.82 19.10 12.43C19.04 12.87 18.96 13.27 17.93 13.47C17.93 13.47 17.92 13.52 17.92 13.58C17.92 13.65 17.93 13.75 17.99 13.82C18.76 13.72 19.61 13.71 20.02 13.71C20.33 13.71 20.97 13.75 21.59 13.75C21.63 13.66 21.63 13.59 21.63 13.54C21.63 13.41 21.59 13.31 21.59 13.31C21.14 13.31 20.78 13.31 20.45 13.27C20.29 13.26 20.27 12.29 20.27 12.10C20.27 11.79 20.27 9.77 20.36 8.71C20.80 8.22 21.50 7.55 21.76 7.55C22.12 7.55 22.34 7.84 22.47 8.29C23.31 8.29 23.46 8.01 23.46 7.73C23.46 7.08 22.93 6.58 22.18 6.58C21.48 7.04 21.08 7.39 20.27 8.23C20.22 7.50 19.88 6.58 19.68 6.58ZM26.15 13.71C26.61 13.71 27.82 13.75 28.34 13.75C28.99 13.75 29.58 13.72 29.75 13.66C29.81 13.65 29.85 13.64 29.85 13.52C29.86 13.09 29.96 12.63 30.06 11.90C29.97 11.86 29.86 11.82 29.78 11.82C29.72 11.82 29.67 11.84 29.62 11.86L29.25 12.82C28.83 12.98 27.51 13.20 26.45 13.20L25.52 13.20L29.12 7.66C29.32 7.36 29.50 7.20 29.62 7.08C29.62 6.99 29.62 6.83 29.53 6.72C28.77 6.80 27.99 6.80 27.29 6.80L26.70 6.80C25.76 6.80 24.42 6.75 24.09 6.75C23.91 6.75 23.87 6.80 23.87 6.87C23.87 7.00 24.04 7.64 24.15 8.60C24.21 8.61 24.29 8.62 24.36 8.62C24.43 8.62 24.53 8.61 24.58 8.57L24.75 7.49C25.26 7.34 26.03 7.31 26.81 7.31L27.99 7.31C27.01 8.93 25.80 10.75 24.32 12.87C24.19 13.05 23.97 13.31 23.84 13.44C23.84 13.44 23.84 13.65 23.95 13.78C24.71 13.71 25.47 13.71 26.15 13.71ZM33.28 11.06C33.28 10.46 33.29 7.39 33.45 6.52C33.45 6.52 33.40 6.36 33.24 6.36C32.84 6.55 32.62 6.66 32.16 6.83C31.65 7.00 31.43 7.04 30.98 7.14C30.98 7.14 30.94 7.21 30.94 7.32C30.94 7.38 30.94 7.45 30.98 7.50C30.98 7.50 31.32 7.53 31.50 7.55C32.20 7.62 32.21 8.23 32.21 9.34L32.21 10.68C32.21 11.24 32.21 12.18 32.14 12.43C32.03 12.85 31.92 13.27 31.08 13.47C31.08 13.47 31.05 13.52 31.05 13.58C31.05 13.65 31.08 13.75 31.14 13.82C31.89 13.72 32.56 13.71 32.98 13.71C33.21 13.71 33.78 13.75 34.24 13.75C34.29 13.66 34.29 13.59 34.29 13.54C34.29 13.41 34.24 13.31 34.24 13.31C33.95 13.31 33.67 13.31 33.46 13.27C33.33 13.26 33.28 11.70 33.28 11.06ZM32.93 4.76C33.24 4.65 33.67 4.30 33.85 4.06C33.77 3.75 33.49 3.36 33.17 3.12C32.89 3.23 32.44 3.57 32.21 3.84C32.34 4.17 32.59 4.52 32.93 4.76ZM37.70 7.84C37.55 7.27 37.27 6.58 37.09 6.58C36.93 6.58 36.53 6.89 35.29 7.06C35.27 7.14 35.27 7.22 35.27 7.25C35.27 7.28 35.27 7.36 35.32 7.43C35.42 7.43 35.74 7.42 35.87 7.42C36.55 7.43 36.55 8.26 36.55 9.21C36.55 10.29 36.55 11.82 36.48 12.43C36.43 12.87 36.33 13.27 35.48 13.47C35.48 13.47 35.46 13.52 35.46 13.58C35.46 13.65 35.48 13.75 35.53 13.82C36.22 13.72 37.00 13.71 37.38 13.71C37.60 13.71 38.11 13.75 38.57 13.75C38.61 13.66 38.63 13.59 38.63 13.54C38.63 13.41 38.57 13.31 38.57 13.31C38.28 13.31 38.05 13.31 37.84 13.27C37.72 13.26 37.67 12.14 37.67 11.30C37.67 10.50 37.67 9.55 37.73 8.44C38.28 8.06 39.00 7.55 39.84 7.55C41.08 7.55 41.08 9.07 41.08 10.57C41.08 11.42 41.06 12.14 41.02 12.43C40.96 12.87 40.87 13.27 40.01 13.47C40.01 13.47 40.00 13.52 40.00 13.58C40.00 13.65 40.01 13.75 40.07 13.82C40.75 13.71 41.54 13.71 41.92 13.71C42.14 13.71 42.74 13.75 43.20 13.75C43.25 13.66 43.26 13.59 43.26 13.54C43.26 13.41 43.20 13.31 43.20 13.31C42.91 13.31 42.63 13.31 42.42 13.27C42.29 13.26 42.21 12.35 42.21 10.91C42.21 10.39 42.24 9.28 42.24 9.06C42.24 7.60 41.62 6.58 40.46 6.58C39.44 6.93 38.89 7.17 37.70 7.84ZM50.51 9.27C50.51 8.65 50.19 7.92 49.64 7.43C50.79 7.45 51.35 7.48 51.35 7.48C51.42 7.34 51.44 7.20 51.44 7.08C51.44 6.76 51.27 6.54 51.27 6.54L49.29 6.87C48.78 6.87 48.61 6.58 47.54 6.58C46.61 6.58 44.52 7.32 44.52 9.55C44.52 10.78 45.42 12.04 47.18 12.15C45.98 12.74 45.65 12.92 45.28 13.15C45.04 13.30 45.00 13.36 45.00 13.44C45.00 14.20 45.58 14.67 46.31 14.94L44.27 16.30C44.16 16.38 44.10 16.45 44.10 16.58C44.10 18.03 45.47 19.03 47.07 19.03C49.24 19.03 51.46 17.74 51.46 16.34C51.46 14.73 50.16 14.41 49.31 14.32L47.26 14.11C46.51 14.04 46.21 13.69 46.21 13.44C46.21 13.16 46.49 12.99 46.70 12.88L48.12 12.14C49.80 11.24 50.48 10.56 50.51 9.27ZM47.68 18.35C46.05 18.35 45.37 17.25 45.37 16.73C45.37 16.38 45.49 16.18 45.82 15.90L46.89 15.06C47.66 15.11 48.16 15.15 48.73 15.20C50.01 15.33 50.34 15.90 50.34 16.52C50.34 17.57 49.36 18.35 47.68 18.35ZM47.66 11.70C46.56 11.70 45.72 10.35 45.72 8.99C45.72 7.95 46.28 7.04 47.38 7.04C48.52 7.04 49.28 8.18 49.28 9.73C49.28 10.79 48.72 11.70 47.66 11.70Z"></path></g><defs data-v-fde0c5aa=""><!----></defs><g data-v-fde0c5aa="" id="be16e26b-3410-4999-8c4d-f913fce832d7" stroke="none" fill="#1F4590" transform="matrix(1.4375020987799807,0,0,1.4375020987799807,78.17520535874961,34.56050656791561)"><path d="M75.984 64.604H23.601c1.72 3.613 12.79 6.4 26.192 6.4 13.4 0 24.473-2.787 26.191-6.4zM6.639 54.232c-.164 3.265 3.689 6.716 8.606 7.703 4.916.989 9.033-.854 9.197-4.119.164-3.268-3.689-6.717-8.605-7.706-4.917-.989-9.034.857-9.198 4.122zM49.791 8.024c-11.093.071-24.025.471-34.641 3.024-.942.18-1.053 1.171-1.053 1.171l-.909 24.142c-.078 4.187 4.705 6.09 36.602 6.191 31.899-.101 36.681-2.004 36.604-6.191l-.91-24.142s-.109-.991-1.053-1.171c-10.617-2.553-23.547-2.953-34.64-3.024zm43.15 46.208c-.164-3.267-4.279-5.112-9.195-4.122-4.916.989-8.77 4.438-8.605 7.706.164 3.266 4.28 5.108 9.196 4.119 4.918-.987 8.768-4.438 8.604-7.703zM49.966 88.538l-2.916-.002c-10.834-.041-21.461-.251-30.302-.9v4.933a4.895 4.895 0 0 1-4.896 4.896H7.826a4.893 4.893 0 0 1-4.896-4.896V82.268c-.105-.916-.216-1.97-.324-3.147-.832-4.317-1.312-9.418-1.312-14.886 0-6.932.774-13.28 2.056-18.184.254-1.117.562-2.114.911-3.003.107-.305.218-.602.33-.891L9.462 8.825s.196-1.388 1.439-1.698c11.178-3.042 38.13-3.345 39.065-3.343.933-.002 27.888.301 39.063 3.343 1.242.31 1.441 1.698 1.441 1.698l4.868 33.332c.111.289.224.586.33.891.349.889.656 1.886.912 3.003 1.28 4.903 2.056 11.252 2.056 18.184 0 5.468-.48 10.567-1.312 14.886a132.8 132.8 0 0 1-.325 3.147v10.301a4.894 4.894 0 0 1-4.894 4.896h-4.027a4.894 4.894 0 0 1-4.896-4.896v-4.932c-8.841.648-19.467.858-30.302.899l-2.914.002z"></path></g><!----></svg>